<?xml version="1.0" encoding="UTF-8"?><svg id="Ebene_1" xmlns="http://www.w3.org/2000/svg" viewBox="0 0 283.46 283.46"><defs><style>.cls-1{fill:#fff;}.cls-2{fill:#0f2db3;}</style></defs><path class="cls-2" d="m212.58,212.6c-21.61-9.75-45.59-15.18-70.84-15.18s-49.26,5.43-70.87,15.18V70.87h141.73l-.02,141.73Z"/><g><path class="cls-1" d="m87.85,113.81c-6.66,0-7.2,6.75-7.2,6.75h-3.18v-10h24.8s.2,7.73-7.14,15.93c0,0-6.98,8.11-7.16,11.66h4.02c5.77,0,6.36-6.75,6.36-6.75h3.32v10.02h-25.34s-.93-7.59,7.86-16.82c0,0,5.41-6.04,6.66-10.82l-3,.02Z"/><path class="cls-1" d="m151.02,141.4v-3.27h-.75c-1.36,0-2.48-1.12-2.48-2.48v-19.34c0-1.36,1.11-2.48,2.48-2.48h.75v-3.27h-16.43v3.27h.75c1.39,0,2.5,1.11,2.5,2.48v19.34c0,1.36-1.11,2.48-2.5,2.48h-.75v3.27h16.43Z"/><path class="cls-1" d="m131.18,141.43v-10.02h-3.32s-.61,6.75-6.39,6.75h-3.32v-10.52h1.18c1.39,0,2.5,1.12,2.5,2.5v1.25h3.27v-10.79h-3.27v1.25c0,1.39-1.11,2.5-2.5,2.5h-1.18v-10.52h3.32c5.77,0,6.39,6.75,6.39,6.75h3.32v-10.02h-26.14v3.29h.75c1.36,0,2.48,1.12,2.48,2.48v19.34c0,1.36-1.11,2.48-2.48,2.48h-.75v3.27l26.14.02Z"/><path class="cls-1" d="m168.29,113.81c6.66,0,7.18,6.75,7.18,6.75h3.21v-10h-23.71s-3.75,4.91,6.05,15.93c0,0,6.95,8.11,7.14,11.66h-4c-5.77,0-6.39-6.75-6.39-6.75h-3.32v10.02h23.89s4.34-4.68-6.41-16.82c0,0-5.64-5.79-6.66-10.82l3.02.02Z"/><path class="cls-1" d="m196.02,113.81c6.64,0,7.18,6.75,7.18,6.75h3.18v-10h-23.68s-3.75,4.91,6.05,15.93c0,0,6.95,8.11,7.14,11.66h-4c-5.77,0-6.39-6.75-6.39-6.75h-3.32v10.02h23.89s4.34-4.68-6.41-16.82c0,0-5.64-5.79-6.66-10.82l3.02.02Z"/></g></svg>