<?xml version="1.0" encoding="UTF-8"?>
<svg id="Layer_1" xmlns="http://www.w3.org/2000/svg" viewBox="0 0 360 87">
  <defs>
    <style>
      .cls-1 {
        fill: #eb1000;
      }
    </style>
  </defs>
  <path class="cls-1" d="M0,85.75L34.93,2.48h24.48l34.67,83.27h-25.97l-21.87-55.31-14.42,36.29h17.15l6.83,19.02H0ZM126.13,87c-19.51,0-36.04-11.06-36.04-33.06s16.03-34.18,32.69-34.18c2.61,0,5.22.25,7.95.87V0h21.62v82.03c-4.97,2.24-15.53,4.97-26.22,4.97ZM125.64,69.1c1.86,0,3.61-.25,5.1-.75v-30.2c-1.49-.62-3.23-.99-5.22-.99-7.21,0-13.8,5.34-13.8,16.4s6.71,15.54,13.92,15.54ZM190.87,86.87c-18.14,0-33.31-12.18-33.31-33.56s15.16-33.56,33.31-33.56,33.43,12.18,33.43,33.56-15.28,33.56-33.43,33.56ZM190.87,68.85c6.34,0,11.93-4.97,11.93-15.53s-5.59-15.54-11.93-15.54-11.8,4.97-11.8,15.54,5.47,15.53,11.8,15.53ZM255.37,87c-8.45,0-19.14-1.74-25.85-4.85V0h21.63v20.51c2.74-.5,5.47-.87,8.08-.87,17.03,0,32.69,11.18,32.69,32.81,0,22.87-16.78,34.55-36.54,34.55ZM251.14,38.28v30.08c1.37.5,2.98.75,4.85.75,7.33,0,14.29-5.22,14.29-16.41,0-10.44-6.71-15.41-13.92-15.41-1.99,0-3.6.37-5.22.99ZM296.86,53.19c0-20.76,14.54-33.43,31.94-33.43,16.28,0,31.19,10.44,31.19,31.44,0,2.86-.12,5.59-.5,8.33h-40.64c2.36,7.33,8.83,10.81,16.91,10.81,6.59,0,12.68-1.62,19.51-4.6v16.53c-6.34,3.23-13.92,4.6-21.75,4.6-20.63,0-36.66-12.43-36.66-33.68ZM318.61,45.98h21.13c-1.12-7.09-5.84-9.94-10.69-9.94s-8.83,2.98-10.44,9.94Z"/>
</svg>