<?xml version="1.0" encoding="UTF-8" standalone="no"?>
<svg
   width="512.00507"
   height="110.24263"
   viewBox="0 0 512.00507 110.24263"
   version="1.1"
   xml:space="preserve"
   style="clip-rule:evenodd;fill-rule:evenodd;stroke-linejoin:round;stroke-miterlimit:2"
   id="svg4"
   sodipodi:docname="logo-without-tagline.svg"
   inkscape:export-filename="logo-without-tagline.jpg"
   inkscape:export-xdpi="69.189186"
   inkscape:export-ydpi="69.189186"
   inkscape:version="1.4.3 (0d15f75042, 2025-12-25)"
   xmlns:inkscape="http://www.inkscape.org/namespaces/inkscape"
   xmlns:sodipodi="http://sodipodi.sourceforge.net/DTD/sodipodi-0.dtd"
   xmlns="http://www.w3.org/2000/svg"
   xmlns:svg="http://www.w3.org/2000/svg"><defs
   id="defs4" /><sodipodi:namedview
   id="namedview4"
   pagecolor="#ffffff"
   bordercolor="#000000"
   borderopacity="0.25"
   inkscape:showpageshadow="2"
   inkscape:pageopacity="0.0"
   inkscape:pagecheckerboard="0"
   inkscape:deskcolor="#d1d1d1"
   inkscape:zoom="4.1425781"
   inkscape:cx="255.8793"
   inkscape:cy="55.520981"
   inkscape:window-width="3230"
   inkscape:window-height="1303"
   inkscape:window-x="0"
   inkscape:window-y="37"
   inkscape:window-maximized="0"
   inkscape:current-layer="svg4" />
    <g
   transform="translate(-2050.4922,-8906.9005)"
   id="g4">
        <g
   transform="translate(1496.91,-0.0497536)"
   id="g3">
            <g
   id="horizontal_layout_light"
   transform="matrix(2.08698,0,0,2.08698,-1595.45,7636.04)">
                <g
   transform="translate(1030.22,608.392)"
   id="g1">
                    <path
   d="m 78.906,40.202 c -1.872,0 -3.612,-0.324 -5.22,-0.972 -1.608,-0.672 -3.024,-1.596 -4.248,-2.772 -1.2,-1.2 -2.148,-2.58 -2.844,-4.14 -0.672,-1.584 -1.008,-3.288 -1.008,-5.112 0,-1.824 0.336,-3.516 1.008,-5.076 0.696,-1.584 1.644,-2.964 2.844,-4.14 1.224,-1.2 2.64,-2.124 4.248,-2.772 1.608,-0.672 3.348,-1.008 5.22,-1.008 1.872,0 3.612,0.336 5.22,1.008 1.632,0.648 3.048,1.572 4.248,2.772 1.224,1.176 2.172,2.556 2.844,4.14 0.672,1.56 1.008,3.252 1.008,5.076 0,1.824 -0.336,3.528 -1.008,5.112 -0.672,1.56 -1.62,2.94 -2.844,4.14 -1.2,1.176 -2.616,2.1 -4.248,2.772 -1.608,0.648 -3.348,0.972 -5.22,0.972 z m 0,-4.788 c 1.152,0 2.208,-0.204 3.168,-0.612 0.96,-0.432 1.8,-1.008 2.52,-1.728 0.72,-0.744 1.284,-1.62 1.692,-2.628 0.408,-1.008 0.612,-2.088 0.612,-3.24 0,-1.176 -0.204,-2.256 -0.612,-3.24 -0.408,-1.008 -0.972,-1.872 -1.692,-2.592 -0.72,-0.744 -1.56,-1.32 -2.52,-1.728 -0.96,-0.432 -2.016,-0.648 -3.168,-0.648 -1.128,0 -2.172,0.216 -3.132,0.648 -0.96,0.408 -1.8,0.984 -2.52,1.728 -0.72,0.72 -1.284,1.584 -1.692,2.592 -0.408,0.984 -0.612,2.052 -0.612,3.204 0,1.176 0.204,2.268 0.612,3.276 0.408,1.008 0.972,1.884 1.692,2.628 0.72,0.72 1.56,1.296 2.52,1.728 0.96,0.408 2.004,0.612 3.132,0.612 z m 18.053,4.392 v -25.2 l 4.932,-0.828 v 8.784 c 1.488,-1.176 3.24,-1.764 5.256,-1.764 1.776,0 3.384,0.432 4.824,1.296 1.44,0.864 2.58,2.028 3.42,3.492 0.864,1.44 1.296,3.06 1.296,4.86 0,1.8 -0.432,3.432 -1.296,4.896 -0.864,1.44 -2.028,2.592 -3.492,3.456 -1.464,0.84 -3.096,1.26 -4.896,1.26 -0.936,0 -1.848,-0.132 -2.736,-0.396 -0.888,-0.264 -1.704,-0.648 -2.448,-1.152 v 1.296 z m 9.396,-3.924 c 1.032,0 1.956,-0.24 2.772,-0.72 0.84,-0.48 1.5,-1.128 1.98,-1.944 0.48,-0.816 0.72,-1.74 0.72,-2.772 0,-1.032 -0.24,-1.956 -0.72,-2.772 -0.48,-0.84 -1.14,-1.488 -1.98,-1.944 -0.816,-0.48 -1.74,-0.72 -2.772,-0.72 -0.912,0 -1.752,0.156 -2.52,0.468 -0.744,0.288 -1.392,0.732 -1.944,1.332 v 7.308 c 0.528,0.552 1.176,0.984 1.944,1.296 0.792,0.312 1.632,0.468 2.52,0.468 z m 14.755,3.924 V 21.05 h 4.932 v 1.44 c 1.344,-1.2 2.976,-1.8 4.896,-1.8 1.224,0 2.316,0.252 3.276,0.756 0.96,0.48 1.752,1.164 2.376,2.052 0.768,-0.912 1.668,-1.608 2.7,-2.088 1.056,-0.48 2.22,-0.72 3.492,-0.72 1.416,0 2.652,0.324 3.708,0.972 1.08,0.624 1.92,1.5 2.52,2.628 0.624,1.104 0.936,2.4 0.936,3.888 V 39.806 H 145.05 V 28.898 c 0,-1.224 -0.324,-2.184 -0.972,-2.88 -0.648,-0.72 -1.512,-1.08 -2.592,-1.08 -0.744,0 -1.428,0.156 -2.052,0.468 -0.6,0.312 -1.116,0.78 -1.548,1.404 0.024,0.216 0.048,0.432 0.072,0.648 0.024,0.216 0.036,0.456 0.036,0.72 v 11.628 h -4.932 V 28.898 c 0,-1.224 -0.324,-2.184 -0.972,-2.88 -0.624,-0.72 -1.476,-1.08 -2.556,-1.08 -0.744,0 -1.416,0.144 -2.016,0.432 -0.576,0.288 -1.068,0.72 -1.476,1.296 v 13.14 z m 43.174,0.36 c -1.872,0 -3.564,-0.432 -5.076,-1.296 -1.512,-0.864 -2.712,-2.028 -3.6,-3.492 -0.888,-1.464 -1.332,-3.108 -1.332,-4.932 0,-1.824 0.432,-3.468 1.296,-4.932 0.888,-1.488 2.088,-2.664 3.6,-3.528 1.536,-0.864 3.24,-1.296 5.112,-1.296 1.872,0 3.564,0.432 5.076,1.296 1.536,0.864 2.736,2.04 3.6,3.528 0.888,1.464 1.332,3.108 1.332,4.932 0,1.824 -0.444,3.468 -1.332,4.932 -0.864,1.464 -2.052,2.628 -3.564,3.492 -1.512,0.864 -3.216,1.296 -5.112,1.296 z m 0,-4.284 c 0.984,0 1.86,-0.24 2.628,-0.72 0.792,-0.48 1.416,-1.128 1.872,-1.944 0.48,-0.84 0.72,-1.764 0.72,-2.772 0,-1.032 -0.24,-1.956 -0.72,-2.772 -0.456,-0.816 -1.08,-1.464 -1.872,-1.944 -0.768,-0.504 -1.644,-0.756 -2.628,-0.756 -0.96,0 -1.836,0.252 -2.628,0.756 -0.792,0.48 -1.416,1.128 -1.872,1.944 -0.456,0.816 -0.684,1.74 -0.684,2.772 0,1.008 0.228,1.932 0.684,2.772 0.456,0.816 1.08,1.464 1.872,1.944 0.792,0.48 1.668,0.72 2.628,0.72 z m 14.479,3.924 V 21.05 h 4.932 v 1.548 c 1.416,-1.272 3.168,-1.908 5.256,-1.908 1.464,0 2.748,0.324 3.852,0.972 1.128,0.624 2.004,1.5 2.628,2.628 0.624,1.104 0.936,2.4 0.936,3.888 v 11.628 h -4.932 V 28.898 c 0,-1.224 -0.348,-2.184 -1.044,-2.88 -0.696,-0.72 -1.644,-1.08 -2.844,-1.08 -0.84,0 -1.584,0.168 -2.232,0.504 -0.648,0.312 -1.188,0.768 -1.62,1.368 v 12.996 z m 31.456,0.252 c -1.776,0 -3.384,-0.432 -4.824,-1.296 -1.44,-0.864 -2.592,-2.016 -3.456,-3.456 -0.84,-1.464 -1.26,-3.096 -1.26,-4.896 0,-1.8 0.42,-3.42 1.26,-4.86 0.864,-1.464 2.028,-2.616 3.492,-3.456 1.464,-0.864 3.108,-1.296 4.932,-1.296 0.936,0 1.836,0.132 2.7,0.396 0.864,0.24 1.668,0.6 2.412,1.08 v -7.668 l 4.932,-0.828 v 26.028 h -4.86 v -1.548 c -1.536,1.2 -3.312,1.8 -5.328,1.8 z m 0.792,-4.212 c 0.912,0 1.74,-0.144 2.484,-0.432 0.768,-0.312 1.428,-0.768 1.98,-1.368 v -7.308 c -0.552,-0.552 -1.212,-0.984 -1.98,-1.296 -0.768,-0.312 -1.596,-0.468 -2.484,-0.468 -1.032,0 -1.968,0.24 -2.808,0.72 -0.816,0.456 -1.464,1.104 -1.944,1.944 -0.48,0.816 -0.72,1.74 -0.72,2.772 0,1.032 0.24,1.956 0.72,2.772 0.48,0.816 1.128,1.464 1.944,1.944 0.84,0.48 1.776,0.72 2.808,0.72 z m 23.827,4.32 c -1.872,0 -3.564,-0.432 -5.076,-1.296 -1.512,-0.864 -2.712,-2.028 -3.6,-3.492 -0.888,-1.464 -1.332,-3.108 -1.332,-4.932 0,-1.824 0.432,-3.468 1.296,-4.932 0.888,-1.488 2.088,-2.664 3.6,-3.528 1.536,-0.864 3.24,-1.296 5.112,-1.296 1.872,0 3.564,0.432 5.076,1.296 1.536,0.864 2.736,2.04 3.6,3.528 0.888,1.464 1.332,3.108 1.332,4.932 0,1.824 -0.444,3.468 -1.332,4.932 -0.864,1.464 -2.052,2.628 -3.564,3.492 -1.512,0.864 -3.216,1.296 -5.112,1.296 z m 0,-4.284 c 0.984,0 1.86,-0.24 2.628,-0.72 0.792,-0.48 1.416,-1.128 1.872,-1.944 0.48,-0.84 0.72,-1.764 0.72,-2.772 0,-1.032 -0.24,-1.956 -0.72,-2.772 -0.456,-0.816 -1.08,-1.464 -1.872,-1.944 -0.768,-0.504 -1.644,-0.756 -2.628,-0.756 -0.96,0 -1.836,0.252 -2.628,0.756 -0.792,0.48 -1.416,1.128 -1.872,1.944 -0.456,0.816 -0.684,1.74 -0.684,2.772 0,1.008 0.228,1.932 0.684,2.772 0.456,0.816 1.08,1.464 1.872,1.944 0.792,0.48 1.668,0.72 2.628,0.72 z"
   style="fill:#031473;fill-rule:nonzero"
   id="path1" />
                </g>
                <g
   transform="translate(901.168,-206.983)"
   id="g2">
                    <path
   d="m 175.616,825.891 c 3.612,4.518 5.773,10.246 5.773,16.475 0,14.577 -11.835,26.412 -26.412,26.412 -14.577,0 -26.412,-11.835 -26.412,-26.412 0,-14.578 11.835,-26.412 26.412,-26.412 6.229,0 11.957,2.16 16.475,5.773 l -3.382,3.573 c -3.628,-2.788 -8.169,-4.446 -13.093,-4.446 -11.873,0 -21.512,9.639 -21.512,21.512 0,11.872 9.639,21.512 21.512,21.512 11.873,0 21.512,-9.64 21.512,-21.512 0,-4.925 -1.659,-9.465 -4.447,-13.093 z m -5.789,5.479 c 2.28,3.073 3.63,6.878 3.63,10.996 0,10.199 -8.281,18.48 -18.48,18.48 -10.2,0 -18.48,-8.281 -18.48,-18.48 0,-10.2 8.28,-18.48 18.48,-18.48 4.117,0 7.922,1.349 10.996,3.63 l -3.401,3.593 c -2.168,-1.466 -4.783,-2.323 -7.595,-2.323 -7.495,0 -13.58,6.085 -13.58,13.58 0,7.495 6.085,13.58 13.58,13.58 7.495,0 13.58,-6.085 13.58,-13.58 0,-2.813 -0.857,-5.427 -2.324,-7.596 z m -6.116,5.787 c 0.911,1.524 1.435,3.306 1.435,5.209 0,5.612 -4.557,10.169 -10.169,10.169 -5.613,0 -10.169,-4.557 -10.169,-10.169 0,-5.613 4.556,-10.169 10.169,-10.169 1.903,0 3.684,0.523 5.208,1.435 l -2.626,2.774 c -0.791,-0.344 -1.665,-0.534 -2.582,-0.534 -3.584,0 -6.494,2.909 -6.494,6.494 0,0.56 0.071,1.103 0.204,1.622 l 3.569,-3.568 4.667,4.667 -3.569,3.568 c 0.519,0.134 1.063,0.205 1.623,0.205 3.584,0 6.494,-2.91 6.494,-6.494 0,-0.918 -0.191,-1.791 -0.535,-2.583 z"
   style="fill:#031473"
   id="path2" />
                </g>
            </g>
        </g>
    </g>
</svg>
