<svg xmlns="http://www.w3.org/2000/svg" role="img" viewBox="-7.72 -7.72 401.18 76.68"><g clip-path="url(#clip0_601_902)"><path fill="#A4794A" d="M77 49H127V54H77zM336 49H386V54H336z"/><path d="M91.7535 23.4651C93.2353 23.4945 94.7028 23.1712 96.0351 22.5217 97.3673 21.8722 98.526 20.9153 99.4155 19.7299L103.534 23.944C100.277 27.5835 96.5423 29.4032 92.1366 29.4032 90.1485 29.479 88.1655 29.1535 86.306 28.4459 84.4465 27.7383 82.7487 26.6632 81.314 25.2849 79.9169 23.939 78.8194 22.3136 78.0932 20.5147 77.3671 18.7158 77.0286 16.784 77.0999 14.8454 77.0453 12.886 77.4005 10.9369 78.1427 9.12273 78.8848 7.30858 79.9976 5.66938 81.4098 4.31007 82.9287 2.87697 84.7222 1.76648 86.6821 1.04563 88.642.324777 90.7277.0085122 92.8132.11592 94.8987.223328 96.9408.752183 98.8163 1.67056 100.692 2.58895 102.362 3.87781 103.725 5.45938L99.7986 9.96081C98.9335 8.79605 97.8066 7.85108 96.5089 7.20223 95.2112 6.55337 93.779 6.21881 92.3282 6.22558 90.0666 6.18206 87.8739 7.00434 86.1985 8.52418 85.3292 9.3228 84.6466 10.3034 84.1997 11.396 83.7527 12.4886 83.5522 13.6664 83.6126 14.8454 83.5521 16.0218 83.7333 17.1982 84.1451 18.3018 84.5569 19.4055 85.1906 20.4131 86.007 21.2623 87.5828 22.6842 89.631 23.4693 91.7535 23.4651V23.4651zM108.514 29.0202V.574951H114.835V23.3695H126.999V29.0202H108.514zM154.773 25.0935C151.895 27.8007 148.093 29.308 144.142 29.308 140.191 29.308 136.389 27.8007 133.511 25.0935 132.107 23.7477 130.999 22.1245 130.257 20.3272 129.515 18.53 129.156 16.5979 129.201 14.654 129.147 12.7089 129.502 10.7742 130.245 8.97566 130.988 7.17708 132.1 5.55488 133.511 4.21452 136.389 1.50733 140.191 0 144.142 0 148.093 0 151.895 1.50733 154.773 4.21452 156.176 5.56034 157.284 7.18352 158.026 8.9808 158.768 10.7781 159.128 12.7101 159.083 14.654 159.137 16.5991 158.781 18.5338 158.039 20.3324 157.296 22.131 156.184 23.7532 154.773 25.0935V25.0935zM152.57 14.654C152.588 12.2474 151.699 9.92223 150.08 8.14131 149.318 7.29739 148.387 6.62278 147.347 6.16106 146.308 5.69934 145.183 5.46078 144.046 5.46078 142.909 5.46078 141.784 5.69934 140.745 6.16106 139.706 6.62278 138.775 7.29739 138.012 8.14131 136.375 9.91087 135.483 12.2436 135.522 14.654 135.504 17.0607 136.393 19.3858 138.012 21.1667 138.775 22.0107 139.706 22.6853 140.745 23.147 141.784 23.6087 142.909 23.8473 144.046 23.8473 145.183 23.8473 146.308 23.6087 147.347 23.147 148.387 22.6853 149.318 22.0107 150.08 21.1667 150.909 20.3029 151.557 19.2814 151.985 18.1627 152.413 17.044 152.612 15.8509 152.57 14.654V14.654zM172.012 21.7412C172.518 22.3962 173.173 22.9207 173.922 23.2706 174.672 23.6205 175.495 23.7857 176.322 23.7525 177.136 23.7958 177.949 23.6344 178.685 23.283 179.421 22.9317 180.057 22.4017 180.536 21.7412 181.636 20.1768 182.176 18.2871 182.068 16.3778V.670654H188.389V16.5693C188.389 20.6877 187.24 23.8483 184.942 26.0511 183.784 27.1608 182.418 28.0288 180.921 28.6043 179.425 29.1799 177.829 29.4515 176.226 29.4032 174.609 29.4515 172.998 29.1803 171.486 28.6051 169.974 28.0298 168.591 27.1619 167.415 26.0511 165.116 23.8483 163.967 20.6877 163.967 16.5693V.670654H170.288V16.3778C170.286 18.3022 170.889 20.1784 172.012 21.7412V21.7412zM216.74 4.31019C219.421 6.80034 220.858 10.2483 220.858 14.6539 220.858 19.0596 219.517 22.6033 216.931 25.1892 214.345 27.7751 210.227 29.0202 204.864 29.0202H194.999V.574951H205.055C210.131.574951 214.058 1.82003 216.74 4.31019zM212.143 21.2624C213.675 19.8258 214.441 17.623 214.441 14.8455 214.441 12.068 213.675 9.86515 212.143 8.42853 210.61 6.9919 208.216 6.12992 204.959 6.12992H201.416V23.4652H205.438C207.87 23.5948 210.262 22.8089 212.143 21.2624V21.2624zM256.965.574951H263.287V29.0202H256.965L243.365 11.206V29.0202H237.044V.574951H242.982L256.965 18.868V.574951zM290.583 29.0202L287.901 22.8906H275.929L273.248 29.0202H266.448L278.707.574951H284.836L297.096 29.0202H290.583zM282.059 9.09895L278.515 17.3356H285.603L282.059 9.09895zM310.696 6.12985V29.1159H304.374V6.12985H296.329V.670654H318.837V6.12985H310.696zM323.337.574951H329.659V29.0202H323.337V.574951zM347.185 18.6765L354.464.574951H361.36L349.963 29.0202H344.599L333.202.574951H340.098L347.185 18.6765zM385.208.574951V6.22569H371.033V12.068H383.771V17.5272H371.033V23.4652H385.687V29.116H364.712V.670726H385.208V.574951zM8.71555 40.8291H0V61.2963H20.4001V52.4945H8.71555V40.8291zM52.5811 40.9249V52.4945H40.8965V61.2963H61.2966V40.8291H52.4853L52.5811 40.9249zM0 20.4672H8.81133L8.71555 20.3714V8.80175H20.4001V0H0V20.4672zM40.8965 0V8.80175H52.5811V20.4672H61.2966V0H40.8965z"/><path d="M39.7465 20.4672L28.0619 8.80175H40.8958V0H20.3999V8.80175L32.0845 20.4672H39.7465zM29.2112 40.8291H21.5492L31.2225 50.4928 33.138 52.4945H20.3999V61.2963H40.8958V52.3988L35.0535 46.6522 29.2112 40.8291zM52.5811 20.467V33.186L50.5698 31.1747 40.8965 21.511V29.2592L46.643 35.0057 52.4853 40.8384H61.2966V20.467H52.5811zM20.4001 32.0367L8.81133 20.467H0V40.8289H8.71555V28.1099L20.4001 39.7849V32.0367z" opacity=".65"/><path d="M146.996 56.4251H140.835L139.87 58.8386H135.457L141.709 43.0472H146.122L152.374 58.8386H147.961L146.996 56.4251ZM145.823 53.4599L143.916 48.6098L142.008 53.4599H145.823ZM164.215 58.8386L160.744 53.8966H159.181V58.8386H155.251V43.0472H162.583C163.733 43.0472 164.759 43.2771 165.663 43.7368C166.583 44.1965 167.295 44.8401 167.801 45.6676C168.322 46.4798 168.583 47.4145 168.583 48.4719C168.583 49.6672 168.253 50.7092 167.594 51.598C166.951 52.4868 166.062 53.1304 164.928 53.5288L168.675 58.8386H164.215ZM159.181 50.3108H162.239C162.913 50.3108 163.464 50.1422 163.894 49.8051C164.323 49.468 164.537 49.0236 164.537 48.4719C164.537 47.9202 164.323 47.4758 163.894 47.1387C163.464 46.8016 162.913 46.633 162.239 46.633H159.181V50.3108ZM179.662 59.1145C178.145 59.1145 176.735 58.7467 175.432 58.0111C174.13 57.2602 173.088 56.2565 172.306 54.9999C171.54 53.7434 171.157 52.3872 171.157 50.9314C171.157 49.4756 171.54 48.1271 172.306 46.8859C173.088 45.6293 174.13 44.6332 175.432 43.8977C176.735 43.1468 178.145 42.7714 179.662 42.7714C180.872 42.7714 182.014 43.0165 183.087 43.5069C184.175 43.982 185.117 44.6409 185.914 45.4837L183.041 48.0352C182.627 47.5142 182.121 47.1004 181.523 46.7939C180.941 46.4874 180.321 46.3342 179.662 46.3342C178.865 46.3342 178.122 46.5487 177.432 46.9778C176.758 47.3916 176.214 47.9509 175.8 48.6558C175.402 49.3607 175.202 50.1192 175.202 50.9314C175.202 51.7589 175.402 52.5251 175.8 53.23C176.214 53.9349 176.758 54.5019 177.432 54.931C178.122 55.3447 178.865 55.5516 179.662 55.5516C180.321 55.5516 180.941 55.406 181.523 55.1149C182.121 54.8084 182.634 54.387 183.064 53.8506L185.914 56.3791C185.117 57.2373 184.175 57.9115 183.087 58.4019C182.014 58.8769 180.872 59.1145 179.662 59.1145ZM203.264 43.0472V58.8386H199.334V52.5404H192.851V58.8386H188.921V43.0472H192.851V49.0236H199.334V43.0472H203.264ZM207.406 43.0472H211.336V58.8386H207.406V43.0472ZM219.199 46.5641H214.418V43.0472H227.934V46.5641H223.13V58.8386H219.199V46.5641ZM234.95 46.5641V49.0236H242.673V52.5404H234.95V55.3218H243.455V58.8386H231.02V43.0472H243.455V46.5641H234.95ZM254.69 59.1145C253.173 59.1145 251.763 58.7467 250.46 58.0111C249.158 57.2602 248.116 56.2565 247.334 54.9999C246.568 53.7434 246.185 52.3872 246.185 50.9314C246.185 49.4756 246.568 48.1271 247.334 46.8859C248.116 45.6293 249.158 44.6332 250.46 43.8977C251.763 43.1468 253.173 42.7714 254.69 42.7714C255.9 42.7714 257.042 43.0165 258.115 43.5069C259.203 43.982 260.145 44.6409 260.942 45.4837L258.069 48.0352C257.655 47.5142 257.149 47.1004 256.551 46.7939C255.969 46.4874 255.349 46.3342 254.69 46.3342C253.893 46.3342 253.15 46.5487 252.46 46.9778C251.786 47.3916 251.242 47.9509 250.828 48.6558C250.43 49.3607 250.23 50.1192 250.23 50.9314C250.23 51.7589 250.43 52.5251 250.828 53.23C251.242 53.9349 251.786 54.5019 252.46 54.931C253.15 55.3447 253.893 55.5516 254.69 55.5516C255.349 55.5516 255.969 55.406 256.551 55.1149C257.149 54.8084 257.662 54.387 258.092 53.8506L260.942 56.3791C260.145 57.2373 259.203 57.9115 258.115 58.4019C257.042 58.8769 255.9 59.1145 254.69 59.1145ZM267.673 46.5641H262.891V43.0472H276.407V46.5641H271.603V58.8386H267.673V46.5641ZM286.481 59.1145C285.071 59.1145 283.807 58.808 282.688 58.195C281.57 57.5821 280.696 56.7316 280.068 55.6436C279.455 54.5556 279.148 53.3143 279.148 51.9198V43.0472H283.079V51.7359C283.079 52.8546 283.393 53.774 284.021 54.4943C284.665 55.1992 285.485 55.5516 286.481 55.5516C287.477 55.5516 288.297 55.1992 288.94 54.4943C289.584 53.774 289.906 52.8546 289.906 51.7359V43.0472H293.814V51.9198C293.814 53.3143 293.499 54.5556 292.871 55.6436C292.258 56.7316 291.392 57.5821 290.274 58.195C289.17 58.808 287.906 59.1145 286.481 59.1145ZM306.584 58.8386L303.113 53.8966H301.55V58.8386H297.619V43.0472H304.952C306.101 43.0472 307.128 43.2771 308.032 43.7368C308.951 44.1965 309.664 44.8401 310.169 45.6676C310.69 46.4798 310.951 47.4145 310.951 48.4719C310.951 49.6672 310.621 50.7092 309.962 51.598C309.319 52.4868 308.43 53.1304 307.296 53.5288L311.043 58.8386H306.584ZM301.55 50.3108H304.607C305.281 50.3108 305.833 50.1422 306.262 49.8051C306.691 49.468 306.905 49.0236 306.905 48.4719C306.905 47.9202 306.691 47.4758 306.262 47.1387C305.833 46.8016 305.281 46.633 304.607 46.633H301.55V50.3108ZM318.306 46.5641V49.0236H326.029V52.5404H318.306V55.3218H326.811V58.8386H314.375V43.0472H326.811V46.5641H318.306Z"/></g><defs><clipPath id="clip0_601_902"><path fill="#fff" d="M0 0H386.262V61.296H0z"/></clipPath></defs></svg>